<svg width="436" height="158" viewBox="0 0 436 158" fill="none" xmlns="http://www.w3.org/2000/svg">
<path id="terrain" d="M0 158L16.568 128.922L30.0753 124.989L54.718 112.291L65.8447 90.0798L78.5585 81.3765L88.8917 77.4078L99.2162 66.3025L107.169 55.9891C107.169 55.9891 109.549 50.4364 117.502 47.2859C125.455 44.1353 124.652 46.4939 132.596 40.1492C140.54 33.8045 141.316 30.6278 145.319 27.4511C149.321 24.2744 162.898 16.3458 162.898 16.3458L170.65 8.36489L180.286 4.36139H212.864L224.427 0.401418L232.737 1.1934C232.737 1.1934 238.204 -3.01027 242.276 4.36139C246.349 11.7331 252.74 11.8201 252.74 11.8201H266.902C266.902 11.8201 267.695 9.91407 272.465 17.8514L277.235 25.7801C277.235 25.7801 275.639 28.9568 281.203 36.0935C286.766 43.2301 292.329 44.7967 296.306 46.4068C298.885 47.4102 301.542 48.2048 304.25 48.7828C304.25 48.7828 308.226 57.4861 310.615 58.3042C313.004 59.1223 321.768 53.5696 321.768 53.5696L330.488 51.1936L334.464 50.3929C334.464 50.3929 337.638 46.433 340.028 54.3616L342.408 62.299C342.969 66.2395 343.234 70.2164 343.202 74.1963C343.202 81.333 340.821 80.541 343.202 84.501C345.582 88.461 348.8 94.8143 348.8 94.8143L355.95 105.128L362.316 113.056L375.832 114.649L391.729 119.41C391.729 119.41 398.879 127.338 403.649 130.506C408.419 133.674 417.156 140.82 417.156 140.82L436 152.717V158H0Z" fill="#907373"/>
</svg>
