<svg id="Layer_1" data-name="Layer 1" xmlns="http://www.w3.org/2000/svg" viewBox="0 0 500 500"><defs><style>.cls-1{fill:#b3b3b3;}.cls-2{fill:#ccc;}</style></defs><title>clouds</title><path id="cloud-tiny-back" class="cls-1" d="M104.67,242.92c2.65-.42,4.12-.1,6.43-1.31-.37-.6-2.39-9.23,2.23-6.87,1.88-2.51,2.6-1.63,5.79-1.71,0,.26,3.36-4.32,2.57-3.67,3-2.51,4.89-2.41,10.63-2.35h0c1.15-.13,3.8.44,3.34,1.88,1.3.36,3.3,3.09,2.9,4.16.92.31.91.93.61,1.63,2.42-.27,3.83-2.85,5.41-.76.66-.27,1.2.68,1.23,1.12,6.53-.69,9.27-1.47,15.07,1.06.18-4.74,6.42,1.94,7.63,2.67,2.79,1.69,21.73,1.27,19.59,4.5-1.32,2-20.26,1.13-23.41,1.14-4.7,0-10.2-.52-13.95-.6-3.09-.06-4.36-2.06-6,.44l1.42.79c-5,.55-9.84-1.22-14.79-.87h0c-2.57,1-9.87,1.62-12.21,0h0c-.44,0-1-.52-1.36-.62l.38.19c-3,.22-12.27,2.26-14.47,0A1.36,1.36,0,0,0,104.67,242.92Z"/><path id="cloud-medium-front" class="cls-2" d="M352.72,298.81a2.15,2.15,0,0,0,1.84-2.3c-1.73,0-20.29-1.13-22.71-3.51a1.23,1.23,0,0,1-1.27-.49h0c-3.88-4.09-9.58-1.83-9.58-1.83s-5.24,1.14-15-3-21.65-1.6-21.65-1.6c1.82-1.82-3.28-5.63-6.87-6.38a7.72,7.72,0,0,0-6.34,1.82c-10.94-2.73-18.46,0-18.46,0-3.42-9.57-22.06-11.06-22.06-11.06l.76-.32h-.06a10.55,10.55,0,0,0,2.3-4.68c-.89-6.65-11.72-1.15-14.06-1-3.5.17-3.2,4.19-6.47,4.79-5.15.95-7.95-4-13.86-1.92,1.59-3.08-.74-4.93-2.65-6.8h0c0-12.58-48.84-12-50-.4-3.93-1.11-8.39,4.49-7,8.2a20.16,20.16,0,0,0-14.06,2.55,4.67,4.67,0,0,0-4.83-2.93c.37-5.86-8.93-7-12.87-5.55.06-.51-30.64-8.89-32.18-8.75-9.35.89-23.14,14.69-32.08,13.84-1.05-6.31-16,5.73-16,10-15.94-.9,5.35,12.56,5.95,14a3.72,3.72,0,0,1-3,1c.92,1.58,2.5,2.25,4,3h0c5.69,5.12-18.88,1.36-18.66,5.31C16.16,304.39,88,303,97.23,303c11.49,0,21.49-2.5,31.89-3.18,4.11-.27,28.18,4.76,30.69-2,7.23,10.41,51.92.68,62.78.68,4.47,9.87,62.25,3.35,75.57,3.44,10.15.07,21.12,1.21,31.39-.46,6.46-1,27.84,1,31-3A29.71,29.71,0,0,1,352.72,298.81Z"/><path id="cloud-small-back" class="cls-1" d="M371.7,252.81h0l-.09,0h0c-.78-.32-6.43-2.8-6.24-6.27.2-3.73-.91-7.63-3.82-7.54,0,0,.31-5.81-6.12-5.5-5.56.26-5.62,4.2-5.54,5.24,0,.16,0,.26,0,.26a2.15,2.15,0,0,1,0-.26c-.12-.83-.71-3.41-3.58-2.76-3.42.78-2.51-2.5-2.51-2.5s-.2-4-3.21-2.93a2.26,2.26,0,0,0-1.46-1.92,3.92,3.92,0,0,0-5.67,3.78c-.8-.28-1.92.81-2.13,2a6.35,6.35,0,0,0-6.19-1.74c.62-2.53-1.35-6.35-3.08-5.59-.49-7.87-22-8.3-22,.27h0c-.84,1.28-1.86,2.54-1.17,4.64-2.6-1.44-3.83,2-6.1,1.31-1.44-.41-1.31-3.15-2.85-3.27-1-.08-5.79-3.83-6.19.7a9.44,9.44,0,0,0,1,3.19h0l.33.22s-8.21,1-9.71,7.54c0,0-3.31-1.86-8.13,0,0,0-1.2-1.75-2.79-1.24s-3.45,2.68-3.16,4l.13.35s.05,1-2.36,1-2.54,1.09-2.54,1.09a10.68,10.68,0,0,0,7.22,1.71c4.42-.47,8.93,3.72,10.44,3.88,1.16.12,3.4,0,6.12-.05h0s5-.57,6-2.75,2.91,0,2.91,0,3.72,3.34,6,.89,2.21,1.66,4.42,1.86a3.22,3.22,0,0,0,3.11-1.86s-.4,5.87,16.7,4.54h0c3.61.51,9-1.08,10.29-.95,4.58.47,9,2.15,14,2.17,4.05,0,35.7.95,35.78-1.52C379.65,252.75,373.76,253.62,371.7,252.81Z"/><path class="cls-2" d="M482.22,273.62c-5-1-7.77-.25-12.13-3.05.7-1.4,4.51-21.48-4.22-16-3.53-5.83-4.91-3.79-10.92-4,0,.61-6.33-10.05-4.84-8.54-5.75-5.82-9.23-5.58-20.07-5.46h0c-2.17-.3-7.18,1-6.3,4.37-2.45.85-6.23,7.18-5.47,9.68-1.74.73-1.72,2.15-1.15,3.8-4.56-.63-7.24-6.64-10.22-1.77-1.24-.63-2.27,1.59-2.31,2.6-12.33-1.6-17.49-3.41-28.44,2.45-.35-11-12.12,4.52-14.4,6.22-5.27,3.93-41,3-37,10.47,2.5,4.66,38.23,2.63,44.18,2.64,8.86,0,19.25-1.21,26.32-1.39,5.83-.14,8.23-4.79,11.35,1L404,278.54c9.35,1.28,18.56-2.84,27.9-2h0c4.86,2.29,18.62,3.76,23,0h0c.82,0,1.78-1.19,2.55-1.43a6,6,0,0,0-.71.45c5.66.49,23.17,5.25,27.3,0A2.75,2.75,0,0,1,482.22,273.62Z"/></svg>