<?xml version="1.0" encoding="utf-8"?>
<!-- Generator: Adobe Illustrator 23.0.1, SVG Export Plug-In . SVG Version: 6.00 Build 0)  -->
<svg version="1.1" id="Layer_1" xmlns="http://www.w3.org/2000/svg" xmlns:xlink="http://www.w3.org/1999/xlink" x="0px" y="0px"
	 viewBox="0 0 500 500" style="enable-background:new 0 0 500 500;" xml:space="preserve">
<style type="text/css">
	.st0{fill:#202020;}
</style>
<g>
	<g>
		<g>
			<g>
				<path class="st0" d="M177.91,383.81c0.35,0.23,0.42,0.32,0.43,0.38c0.31,0.15,0.6,0.3,0.92,0.46L177.91,383.81z"/>
				<path class="st0" d="M113.88,315.12c-0.02-0.05-0.04-0.09-0.07-0.15c0.07,0.17,0.16,0.38,0.17,0.42
					C114.06,315.54,114.06,315.54,113.88,315.12z"/>
				<path class="st0" d="M125.38,336.16c0.21,0.36,0.42,0.72,0.62,1.05C126,337.18,125.74,336.75,125.38,336.16z"/>
				<path class="st0" d="M166.91,376.57c0.84,0.66,1.7,1.33,2.58,2.03C169.27,378.29,168.32,377.48,166.91,376.57z"/>
				<path class="st0" d="M123.69,333.4c0.45,0.73,1.17,1.89,1.7,2.76C124.86,335.32,124.29,334.39,123.69,333.4z"/>
				<path class="st0" d="M101.6,271.97c0.1,0.64,0.21,1.34,0.32,2.1c0.01,0.05,0.02,0.11,0.03,0.16L101.6,271.97z"/>
				<path class="st0" d="M100.22,256.88c-0.12-2.12-0.13-2.47-0.12-2.16C100.12,255.11,100.16,255.74,100.22,256.88z"/>
				<path class="st0" d="M107.47,205.83c-0.12,0.37-0.23,0.73-0.33,1.05C107.38,206.13,107.54,205.62,107.47,205.83z"/>
				<path class="st0" d="M100.89,234.83c-0.01,0.09-0.02,0.21-0.05,0.39C100.83,235.41,100.84,235.33,100.89,234.83z"/>
				<path class="st0" d="M388.96,151.91l-0.31-1.53C388.52,150.78,388.67,151.32,388.96,151.91z"/>
				<path class="st0" d="M422.63,222.48c0.04,0.25,0.07,0.47,0.11,0.7C422.71,222.95,422.67,222.73,422.63,222.48z"/>
				<path class="st0" d="M422.99,224.82c-0.09-0.57-0.17-1.09-0.25-1.64C422.83,223.89,422.86,224.53,422.99,224.82z"/>
				<path class="st0" d="M101.28,269.8c-0.17-1.66-0.57-5.44-0.61-5.85l0.41,4.01l0.21,2.01l0.3,1.99c-0.11-0.71-0.2-1.33-0.28-1.83
					c-0.05-0.5-0.09-0.88-0.12-1.11C101.15,268.57,101.17,268.74,101.28,269.8z"/>
				<path class="st0" d="M242.52,117.47c2.33,0.12,3.49,0.04,4.07-0.04c-1.4-0.07-2.84-0.02-4.19-0.01L242.52,117.47z"/>
				<path class="st0" d="M295.84,121.75c-0.08,0.01-0.16,0.01-0.23,0.02c0.12,0.04,0.21,0.04,0.33,0.08L295.84,121.75z"/>
				<path class="st0" d="M238.4,117.96c-0.26,0.11-0.55,0.22-0.69,0.38C238.58,118.34,238.62,118.18,238.4,117.96z"/>
				<path class="st0" d="M190.64,388.61c0.35,0.12,0.65,0.22,1.1,0.37C191.25,388.8,190.92,388.69,190.64,388.61z"/>
				<path class="st0" d="M293.01,118.79c0.96,0.98,1.91,1.97,2.83,2.96c0.53-0.05,1.08-0.11,1.79-0.16
					C298.71,120.65,294.77,119.12,293.01,118.79z"/>
				<path class="st0" d="M238.4,117.96c0.89-0.4,2.31-0.48,4-0.54l-1.98-0.76c-0.6-0.03-1.08-0.05-1.48-0.05
					c-0.39,0.02-0.69,0.06-0.92,0.1c-0.45,0.09-0.6,0.21-0.59,0.35C237.45,117.35,238.13,117.7,238.4,117.96z"/>
				<path class="st0" d="M100.46,261.42c-0.06-1.23,0,0.3,0.1,1.49c0.1,1.19,0.17,2.05-0.04-0.51l-0.28-5.07
					c0.05,0.84-0.11-2.04-0.14-2.61c-0.12-2.03,0.35,6.5,0.02,0.53c-0.06-1.39-0.05-5.93-0.07-8.22c0.05,5.12-0.09-0.13,0.09-2.18
					c0.08-1.58,0.18-3.62,0.28-5.45c0.19-1.82,0.35-3.42,0.43-4.17c0.02-0.25,0.09-0.97,0.18-1.84c0.04-0.44,0.09-0.91,0.14-1.38
					c0.07-0.47,0.14-0.93,0.2-1.34l0.03-0.16c0.55-3.72-0.2,1.26-0.06,0.31c0.21-1.35,0.47-3.07,0.77-5.01
					c0.29-1.94,0.82-4.05,1.24-6.23c-0.43,2.18-0.9,4.16-1.19,6.01c-0.28,1.85-0.54,3.55-0.77,5.12c0.62-4,0.59-3.64,0.35-2.07
					c-0.12,0.79-0.28,1.88-0.43,2.89c-0.15,1.01-0.21,1.94-0.26,2.39c0.81-6.45,1.24-8.9,2.34-14.1c1.4-6.3,0.01,0.52-0.33,2.11
					c0.3-1.44,0.61-2.9,0.91-4.33c0.36-1.41,0.72-2.79,1.06-4.08c0.34-1.29,0.63-2.51,0.96-3.58c0.33-1.06,0.63-2,0.86-2.75
					c-1.27,4.2-0.99,3.49-1.97,7.32c1.25-4.56,1.59-5.45,2.25-7.61c-0.42,1.25-1.05,3.15-1.21,3.64c1.78-5.33,1.31-4.46,2.14-7.27
					c0.77-1.93,1.82-4.76,2.76-6.99c1.02-2.21,1.81-3.87,1.78-3.59l-0.18-0.02c0.96-2.23,1.24-2.79,1.34-2.88
					c0.09-0.09-0.05,0.28,0.15-0.04c0.72-1.66-0.52,0.26,3.16-7.05c-0.28,1.27,3.59-6.34,3.88-5.91c2.07-3.19,2.68-4.85,5.07-8.02
					c1.39-1.7,0.66-0.39-0.62,1.56c-0.66,0.97-1.37,2.14-2.02,3.19c-0.65,1.05-1.24,1.96-1.58,2.45c-2.97,4.62,0.22-0.7-0.96,1.15
					c-0.89,1.51-1.7,3.06-2.57,4.58c0.78-1.24,1.88-3.12,2.85-4.54c0.99-1.41,1.74-2.42,1.63-2.08c2.86-4.5-2.52,3.49,0.59-1.46
					c0.68-0.96,1.33-1.94,2.07-2.86c3.35-4.76-1.03,0.79,3.41-5.39c-2.92,4.16,5.09-6.5,5.25-5.78c-0.06-0.14,0.47-0.85,1.32-1.85
					c0.86-0.99,1.95-2.34,3.22-3.59c1.25-1.27,2.52-2.56,3.52-3.62c1-1.07,1.81-1.84,1.99-2.22l-1.53,1.31l-1.46,1.38l0.84-0.44
					c-1.5,1.58-2.88,3.02-4.27,4.48c-1.32,1.52-2.67,3.04-4.21,4.7c2.19-2.79-1.17,0.63,1.42-2.6c1.21-1.52,1.91-2.38,2.31-2.79
					c0.41-0.41,0.48-0.41,0.42-0.25c-0.13,0.3-0.76,1.28-0.4,0.87l4.02-4.68l-3.11,2.85c1.64-1.77,3.5-3.93,5.76-6.03
					c1.12-1.06,2.24-2.19,3.46-3.27c1.23-1.06,2.49-2.14,3.75-3.22c0.49-0.38,0.91-0.7,1.27-0.98c0.38-0.26,0.7-0.48,0.98-0.66
					c0.54-0.36,0.89-0.58,1.1-0.69c0.41-0.22,0.26-0.03,0.05,0.21c-0.43,0.49-1.15,1.16,1.79-0.75c1.18-1.01,1.58-1.46,2.13-1.97
					c0.57-0.49,1.3-1.04,3.14-2.27c-2.13,1.14-3.44,2.5-4.77,3.5c-1.02,0.45,0.46-0.88,2.23-2.19c1.77-1.31,3.7-2.75,3.33-2.86
					c1.63-0.86,1.5-0.44,0.48,0.59c6.04-4.34,12.38-7.74,15.37-8.05l2.39-2.24c1.44-0.67,2.41-1.07,3.04-1.26
					c0.62-0.21,0.87-0.26,0.88-0.19c0.01,0.13-1,0.67-2.02,1.29c-2.04,1.29-4.29,2.64,0.64,0.69c2.03-0.8,4.04-1.58,5.72-2.33
					c1.68-0.75,3.12-1.3,3.91-1.85c-1.18,0.41-2.39,0.79-3.56,1.24c2.45-1.55,2.08-1.85,6.25-3.86c3.18-0.9,1.8,0.41,5.34-1.41
					c2.43-0.62,3.93-0.67,4.7-0.64c0.78,0.05,0.88,0.31,0.64,0.66c-0.48,0.71-2.34,1.74-2.9,2.5c7.17-0.92-2.7,3.08,1.8,1.53
					c-0.45-0.01-0.91-0.02-1.35,0.01c2.2-1.07,4.43-2.11,6.66-3.24c-7.21,0.13-2.26,1.89-5.4,1.1c-1.37,0.24-2.7,0.61-4.05,0.95
					c0.25-0.25,1.03-0.58,2.07-0.94c1.04-0.35,2.36-0.66,3.65-1c1.29-0.34,2.57-0.67,3.55-0.99c1-0.27,1.72-0.53,1.87-0.78
					c0.21,0.47-0.55,1.55-4.71,2.57c1,0.33,2,0.68,2.99,1.05c2.46-0.27,3.78-1.59,5.31-1.05c1.94,0.29,0.73,0.93,0.17,1.37
					c-0.28,0.22-0.41,0.4,0.09,0.48c0.25,0.04,0.66,0.05,1.28,0.04c0.31-0.01,0.67-0.03,1.1-0.05c0.43-0.01,0.92-0.01,1.48-0.02
					c2.38-0.08,4.08-0.27,5.41-0.53c1.34-0.19,2.31-0.46,3.19-0.74c1.75-0.55,3.13-1.23,6.36-0.98c-0.36-0.24-0.93-0.34-1.67-0.4
					c-0.37-0.03-0.78-0.05-1.23-0.06c-0.44,0.01-0.92,0.02-1.42,0.03c2-0.77-1.77-1.16,1.7-1.82c1.1,0.67,3.35,1,5.95,1.15
					c1.3,0.07,2.7,0.23,4.08,0.3c1.39,0.09,2.77,0.12,4.05,0.22c-1.3,0.67,1.98,1.88,0.4,2.17c2.55,0.12,4.89,0.13,5.99-0.47
					c-5.13-1.16-2.66-1.2,0.15-1.3c2.78,0.06,5.9,0.04,1.9-1.36c2.03,0.31,3.63,0.64,4.97,1.02c1.33,0.44,2.41,0.88,3.37,1.34
					c0.97,0.46,1.83,0.91,2.74,1.38c0.91,0.5,1.87,1.05,3.02,1.59c-0.2,0.25-2.44-0.13-3.8-0.1c-1.37,0.04-1.8,0.19,1.53,1.4
					c3.98,0.15,3.76-0.62,3.29-1.46c-0.46-0.85-1.17-1.76,2.11-2.13l-4.97-1.87c-0.19-1.19,2.06-0.82,4.51-0.18
					c0.61,0.17,1.24,0.32,1.84,0.52c0.6,0.21,1.17,0.41,1.69,0.59c1.04,0.35,1.86,0.6,2.21,0.56c2.97,1.48-4.43-0.58-1.73,1.87
					c1.11,0.47,2.1,0.77,3.01,0.98c0.91,0.21,1.71,0.42,2.48,0.57c1.52,0.32,2.85,0.61,4.14,1.56c-3.19,0.66-1.28,0.65-4.74,0.97
					c5.13,1.85,4.81,2.35,4.23,2.78c-0.6,0.42-1.48,0.87,2.07,3.05c1.22,0.36,1.57,0.01,2.08-0.18c0.51-0.19,1.19-0.23,2.99,0.9
					c-1.57-2.92-1.1-3.34-7.47-6.03c1.48-0.86,3.57,0.19,5.86,1.43c1.15,0.6,2.3,1.43,3.51,2.02c1.19,0.62,2.43,1.04,3.65,1.2
					c-3.39-1.88-0.89-1.05-4.82-2.43c0.25-2.45-1.15-3.41,3.19-3.9c-1.12-0.31-2.12-0.45-3.09-0.54c-0.97-0.07-1.91-0.03-2.88-0.09
					c-1.96-0.09-4.03-0.53-7.09-1.85c-0.6-1.37,1.44-1.15,3.75-0.94c2.28,0.32,4.84,0.6,5.34-0.83c1.84-0.22,4.54,0.91,7.17,2.28
					c2.61,1.44,5.04,3.35,6.46,4.68c3.27,0.64,6.76,1.82,10.03,3.06c0.83,0.29,1.65,0.57,2.47,0.83c0.81,0.27,1.59,0.55,2.38,0.77
					c1.57,0.45,3.11,0.73,4.61,0.75c1.71,1.84,5.49,3.74,9.55,6.31c4.1,2.49,8.51,5.6,11.52,9.13c-0.03,1.07,1.73,3.29,2.85,4.87
					c1.13,1.59,1.61,2.55-0.98,1.24c1.01,0.08,6.2,5.49,6.06,2.95c-0.94-0.19-1.16-1.15-2.32-2.3l2.54-0.4
					c1.15,1.98,3.12,3.36,4.9,4.93c1.8,1.55,3.64,3.07,4.35,5.24c-0.31,1.12-1.67-0.36-3.08-1.54c-1.4-1.2-2.7-2.21-2.6-0.44
					c1.25,0.26,2.99,1.16,4.74,2.62c1.77,1.44,3.77,3.26,5.49,5.35c0.88,1.03,1.74,2.09,2.54,3.15c0.77,1.08,1.45,2.17,2.08,3.19
					c0.62,1.03,1.16,2.01,1.59,2.89c0.4,0.91,0.68,1.72,0.84,2.4c1.3,3.4-1.01,5.08-0.68,6.55l2.76,5.19
					c-0.59,1.03-1.58,1.58-2.26,3.06c0.46,2.88,2.18,4.23,3.24,5.72c0.79,7.74-2.91,4.68-5.95,1.96c-0.11-1.41-0.38-2.77-0.59-4.16
					c-1.2-1.11-1.99-2.73-2.82-3.58c-0.8-0.86-1.44-1.02-2.12,0.66c0.56,0.85,1.06,1.16,1.53,1.31c0.48,0.14,0.93,0.11,1.35,0.33
					l-0.51,2.8c0.49,0.43,1.06,1.12,1.65,1.9c0.55,0.79,1.12,1.67,1.7,2.45c1.15,1.56,2.29,2.74,3.15,2.06
					c0.06,1.29,0.22,2.57,0.55,3.82c0.29,1.26,0.76,2.48,1.11,3.71c0.34,1.24,0.68,2.46,0.89,3.66c0.21,1.2,0.33,2.38,0.1,3.54
					c0.75-3.25,2.32,0.29,3.77-0.95c-0.06-0.9-0.18-1.79-0.31-2.69l-0.37-2.69c0.41,1,0.91,2.11,1.44,3.28
					c0.53,1.17,0.94,2.42,1.36,3.68c0.4,1.26,0.75,2.52,0.95,3.74c0.14,1.23,0.16,2.41-0.04,3.48c-1.39-0.29-1.86-0.35-2.83,1.85
					c0.68-1.55,1.56,0.2,2.45,1.55c0.8,1.36,1.69,2.34,2.42-0.99c-0.55-1.11-0.99-2.2-1.31-3.38c-0.34-1.18-0.51-2.47-0.74-3.97
					c1.22-1.26,2.15-0.74,3.05,0.42c0.88,1.16,1.63,2.98,2.67,4.22c0.3,0.83,0.66,1.87,1.02,3.03c0.32,1.18,0.67,2.47,1.03,3.81
					c0.34,1.34,0.79,2.72,1.09,4.06c0.32,1.35,0.65,2.65,0.97,3.83c-0.45,3.06-3.78,3.96-1.79,9c1.34-3.22,2.51-1.73,3.69,0.9
					c1.07,2.62,2.07,6.37,3.46,7.35c-0.81,2.52-0.44,4.62-0.16,6.64c0.07,0.5,0.13,1,0.16,1.48c0.01,0.49-0.01,0.97-0.08,1.45
					c-0.14,0.96-0.49,1.9-1.21,2.83c-0.17-0.56-0.22-1.46-0.24-2.54c0-1.07,0.02-2.32-0.07-3.58c-0.14-2.5-0.42-4.99-1.41-6.04
					c-2.02-0.39-5.43,1.23-6.2-6.12c-1.37,8.72,1.53,5.26,2.03,9.43l0-3.07c0.68,1.45,2.47-1.07,2.26,1.67
					c-0.22,1.32-0.44,2.5-0.67,3.56c-0.22,1.07-0.48,2.01-0.79,2.87c-0.6,1.71-1.22,3.08-1.87,4.33c-0.62,1.25-1.41,2.35-2.21,3.54
					c-0.81,1.19-1.66,2.47-2.6,4.04c0.84-0.61,1.49-0.05,1.82,0.86c0.33,0.91,0.4,2.18,0.25,3.01c-1.68,3.09-2.69,2.77-3.78,2.12
					c-1.09-0.66-2.24-1.61-4.15-0.08c1.16,2.66-0.58,6.83,1.21,5.8c-0.7,2.52-1.09,0.97-2.21,2.55c0.51,1.06,0.83,2.14,0.87,3.4
					c0.02,0.62-0.02,1.3-0.17,2.02c-0.17,0.71-0.41,1.49-0.76,2.34c-0.33-0.31-0.75-0.71-0.87-1.41c-0.12-0.7,0.07-1.68,0.82-3.25
					c-0.93,1.73-2.32,2.61-3.48,2.81c-1.18,0.2-2.21-0.3-2.68-1.36c1.11-1.74,2.02-3.58,3.04-5.39c-0.51-1.65-1.17-0.36-1.91,1.21
					c-0.37,0.79-0.76,1.65-1.17,2.26c-0.45,0.59-0.89,0.93-1.32,0.7c0.28-1.31,0.78-2.36,1.29-3.29c0.5-0.93,0.96-1.75,0.97-2.64
					c-1.27,0.46-1.81,2.07-2.14,3.96c-0.35,1.88-0.6,4.01-1.03,5.49c-0.49,1.1-0.97,1.77-1.42,2.12c-0.44,0.37-0.82,0.45-1.17,0.38
					c-0.69-0.13-1.24-0.84-1.75-1.03c-0.07,4.39,1.65,2.68,3.47,0.79c1.76-1.88,3.46-3.99,3.53,0.3c0.53,1.85-0.1,4.5-1.05,7.33
					c-1.12,2.75-2.42,5.76-3.61,8.2c2.28-1.36,3.06-0.8,2.97,0.81c-0.04,0.8-0.3,1.87-0.68,3.08c-0.19,0.6-0.41,1.24-0.65,1.9
					c-0.25,0.65-0.55,1.31-0.85,1.97c1.05-1.56,1.73-2.38,2.28-2.83c0.56-0.45,0.98-0.52,1.38-0.67c0.4-0.14,0.76-0.35,1.22-1.06
					c0.44-0.72,1.05-1.9,1.65-4.11l1.96,0.86c-0.87,1.72-2.17,3.4-3.42,5.09c-0.62,0.85-1.24,1.69-1.85,2.52
					c-0.63,0.81-1.23,1.61-1.76,2.41c-0.04-0.98-0.92-0.49-0.53-1.73c-0.89,1.66-1.74,3.36-2.68,5l-2.92,4.89l-0.41-1.75
					c-1.02,1.41-2.29,2.74-3.54,4.09c-1.25,1.35-2.51,2.69-3.79,3.9c-1.26,1.22-2.42,2.41-3.42,3.5c-1.04,1.05-1.9,2.03-2.48,2.9
					c2.13-2.53,5.53-3.37,3.53-0.4c-0.81,2.05-2.7,5.5-5.23,7.54c-2.65-0.28-11.63,7.6-7.34,0.96c-1.64,1.81-2.67,3.09-3.46,3.98
					c-0.79,0.9-1.27,1.52-1.73,2.14c-0.94,1.22-1.75,2.53-5.27,5.75c1.61-1.38,3.25-2.72,4.76-4.21c0.81,0.41,0.6,1.99,0.83,3.09
					c0.24,1.11,0.95,1.75,3.76,0.26c-2.61,2.65-2.57,3.85-2.88,5.13c-0.32,1.27-0.91,2.74-5.1,5.59c-2.03,0.65-2.17-0.18-1.27-1.58
					c0.93-1.35,2.74-3.5,4.93-5.22c-2.41,1.46-4.91,2.24-6.82,4.62c-1.25,0.01-0.42-1.17,0.61-2.38c1.04-1.21,2.22-2.58,1.97-2.71
					c-2.07,1.4-1.94,1.56-1.73,1.76c0.2,0.2,0.48,0.45-1.42,1.89c-1.53,1.48-2.68,2.26-3.61,2.67c-0.94,0.4-1.7,0.4-2.43,0.4
					c-1.49-0.03-2.89-0.06-6.12,2.27c0.76-0.4,1.85-0.91,2.57-1.09c0.73-0.18,1.09-0.04,0.35,0.78c-1.16,0.67-2.13,1.17-2.93,1.61
					c-0.8,0.44-1.42,0.81-1.91,1.14c-0.99,0.66-1.49,1.13-1.9,1.59c-0.81,0.93-1.29,1.7-4.76,3.58c-2.44-0.06-3.39-0.79-4.59-1.26
					c-1.19-0.45-2.6-0.61-5.88,0.45l3.59-1.39c-1.43,0.02-2.88,0.21-4.29,0.53c-1.43,0.26-2.83,0.63-4.13,1.1
					c-0.81,0.39-1.61,0.78-2.41,1.17c-0.8,0.39-1.61,0.71-2.4,1.07c-1.6,0.71-3.18,1.41-4.73,2.1c-1.59,0.62-3.17,1.24-4.74,1.85
					l-2.37,0.91l-2.41,0.78c-1.62,0.51-3.25,1.02-4.89,1.53c-1.66,0.42-3.35,0.82-5.07,1.21c-0.86,0.19-1.73,0.38-2.61,0.57
					c-0.88,0.14-1.77,0.28-2.67,0.42c-1.8,0.26-3.65,0.55-5.55,0.72c1.82-0.15,3.62-0.4,5.43-0.61c1.88,0.43-4.51,0.85-4.4,1.39
					c-1.15-0.19-2.3-0.44-3.44-0.65c-0.46,0.51,1.47,0.79,3.27,1.04c1.8,0.18,3.48,0.37,2.47,0.93c-0.47-0.12-1.6-0.11-2.26,0
					l3.21,0.22c-3.63,0.01-6.86,0.25-9.89,0.39c-1.51,0.1-2.97,0.02-4.38-0.15c-1.41-0.17-2.78-0.46-4.11-0.93
					c3.51,0.2,5.41,0.13,6.48-0.09c1.08-0.23,1.34-0.64,1.59-1.01c0.5-0.8,0.98-1.52,7.71-1.96c-7.13,0.58-1.29-1.07-2.04-1.51
					c-3.72-0.16-1.82,0.83-6.01,0.55c0.13-0.7,9.05-1.6,5.07-2.06c-0.43,1.18-4.13,1.05-5.95,1.83c-3.08-0.4,0.09-0.71-1.25-1.1
					c-1.71,0.01-2.73,0.45-4.26,0.26l1.2-0.63c-2.13-0.28-3.35-0.36-4.15-0.4c-0.8-0.01-1.17,0.1-1.58,0.23
					c-0.41,0.13-0.86,0.28-1.82,0.32c-0.95,0.02-2.43,0.05-4.84-0.37c-0.19,0.37,0.47,0.62,1.68,0.82c1.22,0.16,3,0.21,5.04,0.3
					c0.96,1-2.25,1.27-5.65,1.36c-3.38,0-6.96-0.09-6.7,0.87c-9.34-1.72,2.56-0.16-5.24-2.26c-2.06-0.98-0.55-0.95,1.73-0.75
					c1.14,0.1,2.47,0.22,3.65,0.33c1.19,0.03,2.22,0.02,2.75-0.12c-2.69-0.56-5.32-1.37-7.96-2.07c1.49-0.43,3.45-0.34,5.24-0.26
					c1.8,0.02,3.45-0.03,4.25-0.62c-1.48-0.18-2.56-0.29-3.43-0.35c-0.87-0.08-1.53-0.15-2.2-0.18c-1.34-0.08-2.71-0.06-5.78-0.37
					c4.77,1.37,3.68,1.4,2.03,1.37c-1.65-0.02-3.83-0.21-1.16,1.02c-2.24-0.63-2.97-1.03-3.97-1.36c-0.5-0.18-1.07-0.36-1.92-0.59
					c-0.85-0.24-1.99-0.49-3.6-0.98c2.09,0.48,2.21,0.19,2.47,0.03c0.27-0.17,0.7-0.27,3.43,0.33c-4.43-0.89-6.03-1.32-7.64-1.68
					c-1.61-0.37-3.25-0.67-7.55-2.13c-1.47-0.09,0.61,0.89,1.75,1.54c1.14,0.64,1.34,0.95-3.95-0.64c-1.13-0.39-1.54-0.64-1.52-0.71
					c0.02-0.07,0.47,0.05,1.13,0.27c-3.61-1.56-3.3-1.24-2.71-0.64c0.59,0.59,1.5,1.42-0.86,0.62c-3.22-1.28-4.25-2.02-2.87-1.62
					c-1.24-0.4-1.99-0.66-2.49-0.79c-0.5-0.13-0.76-0.15-0.96-0.15c-0.4,0-0.6,0.08-2.18-0.62l1.38,0.78
					c-1.41-0.5,1.82,2.26-4.91-1.19c-4.79-2.75-3.12-2.19-3.14-2.43c-0.95-0.48-1.84-0.95-2.67-1.41c-0.81-0.5-1.57-0.99-2.29-1.47
					c-1.43-0.95-2.7-1.85-3.88-2.71c0.19,0.26-0.14,0.16-1.2-0.58c-6.01-4.03-3.21-2.68-5.33-4.34c-4.02-3.2-3.89-2.84-3.89-2.55
					c0,0.15-0.04,0.27-0.64-0.07c-0.62-0.33-1.75-1.21-3.93-3.08l2.52,2.2c0.84,0.74,1.73,1.4,2.6,2.11
					c1.75,1.38,3.46,2.83,5.29,4.11c-0.59-0.13-1.03,0,1.33,1.7c0.21-0.08,1.33,0.52,2.86,1.44c1.57,0.86,3.55,2.05,5.42,3.29
					c0.42,0.57-2.18-0.96-4.12-2.07c-0.97-0.56-1.78-1-1.95-1.04c-0.18-0.02,0.24,0.4,1.77,1.54c-0.56-0.39-1.18-0.81-1.83-1.25
					c-0.64-0.46-1.32-0.95-2.01-1.44c-1.38-1-2.85-2-4.16-3.05c2.87,1.74-8.35-6.78-3.54-3.53c-1.46-1.1-2.68-2.19-3.8-3.16
					c-1.12-0.97-2.13-1.85-3.06-2.65c-1.78-1.7-3.26-3.12-4.71-4.52c-2.83-2.86-5.57-5.6-9.95-10.62c0.45,0.41,2.14,2.15,4.3,4.43
					c1.12,1.1,2.37,2.33,3.65,3.58c0.64,0.63,1.26,1.29,1.91,1.9c0.66,0.61,1.3,1.23,1.92,1.84l0.29,0.52
					c3.24,2.9,2.04,1.69,0.2-0.12c-0.92-0.91-2.01-1.96-2.77-2.74c-0.73-0.81-1.17-1.32-0.84-1.1c-1.94-1.84-4.01-3.77-5.91-5.99
					c-0.97-1.1-1.96-2.21-2.96-3.35c-0.95-1.18-1.9-2.38-2.88-3.6c-0.48-0.61-0.97-1.22-1.46-1.83c-0.49-0.62-0.93-1.27-1.4-1.91
					c-0.93-1.28-1.88-2.57-2.82-3.88c-0.92-1.32-1.8-2.68-2.71-4.02c-0.91-1.34-1.83-2.69-2.65-4.1c1.13,2-0.24-0.19-0.58-0.63
					c0.68,1.12,1.16,1.91,1.53,2.52c0.4,0.59,0.67,1,0.93,1.38c0.5,0.76,0.9,1.38,1.92,3.02c-0.49-0.55-2.2-3.18-3.15-4.54
					c-0.85-1.09,2.16,3.32,3.14,4.9c-1.4-2.06-2.04-3-2.53-3.73c-0.51-0.71-0.85-1.23-1.63-2.5c-1.33-2.43-1.1-2.13-2.11-4
					c-2.97-5.4-4.25-7.82-5.27-10.03c-0.53-1.1-1.02-2.13-1.65-3.45c-0.6-1.33-1.25-2.99-2.21-5.27c2.11,5.09-0.95-2.4,1.34,3.13
					l-1.27-3.06c1.62,3.95,4.04,9.24,6.22,13.25c1.1,2,2.03,3.73,2.71,4.85c0.7,1.1,1.07,1.63,0.92,1.29
					c-0.94-1.47-1.7-2.91-2.47-4.3c-0.76-1.4-1.54-2.74-2.27-4.16c-1.39-2.89-2.97-5.9-4.55-9.86l0.16,0.32
					c-2.39-5.67,0.01,0.09-0.57-1.24c-0.34-0.79-0.64-1.52-0.92-2.18c-0.25-0.68-0.47-1.3-0.68-1.88c-0.41-1.16-0.77-2.15-1.1-3.07
					c-0.69-1.83-1.17-3.46-1.89-5.73l1.04,3.37c0.37,1.11,0.79,2.21,1.19,3.32c-1.85-4.99,0.53,1.47,0.04,0.29
					c-0.4-1.11-0.86-2.32-1.3-3.62c-0.41-1.32-0.84-2.72-1.29-4.19c-0.23-0.73-0.46-1.48-0.7-2.25c-0.23-0.76-0.41-1.56-0.62-2.36
					c-0.41-1.6-0.83-3.25-1.27-4.93c-0.38-1.69-0.71-3.43-1.07-5.16c-0.18-0.87-0.36-1.74-0.54-2.61l-0.41-2.64
					c-0.27-1.76-0.57-3.51-0.8-5.23c-0.18-1.73-0.36-3.44-0.54-5.11c0.41,3.82,0.44,4.92,1.27,9.9c-0.36-2.25-0.67-4.26-0.3-1.82
					c0.34,2.02,0.57,4.06,1,6.06l0.01,0.09c-0.18-0.82-0.33-1.64-0.44-2.45c-0.12-0.8-0.24-1.58-0.36-2.32
					c-0.04-0.42-0.47-2.71-0.72-4.98c-0.23-2.25-0.45-4.33-0.48-4.68l0.54,5.19c0.26,2.55-0.37-3.57-0.74-7.21
					c0.18,1.76,0.47,4.56,0.82,7.87c0.53,3.29,1.01,7.09,1.81,10.72c-0.1-0.53,1.34,6.75-0.05-0.36c0.04,0.2,0.23,1.16,0.51,2.54
					c0.25,1.43,0.69,3.16,1.04,4.54c-0.36-1.44,1.32,5.43-0.3-1.07c0.78,3.12,0.95,3.81,1.14,4.59c0.17,0.79,0.43,1.64,1.47,5.07
					c-0.07-0.24,0.11,0.39,0.42,1.46c0.16,0.53,0.34,1.18,0.55,1.88c0.24,0.69,0.49,1.43,0.75,2.18c0.51,1.49,1.02,2.99,1.39,4.06
					c0.35,1.08,0.64,1.71,0.53,1.53c0.9,2.1,0.01-0.13,3.22,7.55c-0.43-0.92-1.44-3.56-2.1-5.23c-0.66-1.67-0.94-2.38,0.27,0.49
					l-1.56-3.73c-1.9-5.47,0.57,1.47-1.93-5.66c0.74,2.09,2.23,6.34,2.65,7.25c-0.32-0.91,0.77,1.67,1.95,4.53
					c1.25,2.83,2.73,5.87,2.85,6.02c0.62,1.55,1.72,3.47,3.65,7.16c-0.31-0.48,0.7,1.6-0.83-1.25c-1.2-2.39-2.21-4.05-3.36-6.76
					c0.14,0.39,0.48,1.2,0.97,2.29c0.55,1.07,1.24,2.41,2.01,3.89c0.39,0.74,0.79,1.52,1.21,2.33c0.43,0.79,0.91,1.59,1.37,2.39
					c0.94,1.6,1.84,3.25,2.74,4.73c-0.5-0.83-0.63-1.08,0.44,0.51c0.57,0.9,1.3,2.06,2.06,3.28c0.38,0.61,0.77,1.23,1.15,1.83
					c0.4,0.59,0.79,1.15,1.14,1.68c1.42,2.1,2.33,3.52,1.49,2.46c4.16,5.81,8.65,11.44,13.6,16.66c-0.03,0.17-2.12-2.23-3.04-3.17
					l4.07,4.45c0.67,0.76,1.38,1.46,2.1,2.17l2.13,2.15c1.86,2.16-3.05-2.76-4-3.52c2.03,2.08,4.06,4.19,6.16,6.22
					c-0.34-0.22-0.69-0.44-1.02-0.69c0.81,0.72,3.1,2.74,5.38,4.87c2.34,2.05,4.71,4.15,5.52,5.14c1.9,1.51,3.39,2.53,4.67,3.41
					c0.65,0.43,1.24,0.82,1.82,1.21c0.6,0.35,1.18,0.7,1.78,1.06c1.2,0.72,2.49,1.52,4.14,2.63c1.67,1.08,3.75,2.37,6.49,4.27
					c-0.33,0.13-1.94-0.84-3.8-2c-0.92-0.59-1.94-1.19-2.84-1.8c-0.91-0.61-1.75-1.16-2.42-1.54c1.95,1.76,8.8,5.61,9.72,6.8
					c4.2,2.27,6.18,3.06,7.7,3.33c1.5,0.31,2.47,0.3,4.66,1.01c7.07,3.2,0.56,0.94,0.77,1.24c2.08,1.02,5.95,1.3,7.58,3.06
					c3.69,0.86,5.84,0.92,0.72-1.26c1.92,0.73,4.29,1.51,6.3,2.12c2.03,0.54,3.73,0.86,4.27,0.85c-1.74,0.09-0.65,0.56,0.91,1.16
					c0.78,0.3,1.68,0.63,2.39,0.96c0.72,0.29,1.27,0.6,1.32,0.89c1.51,0.48,3.48,1.09,5.7,1.74c2.22,0.58,4.7,1.13,7.18,1.66
					c4.97,0.88,9.97,1.41,12.97,0.81l-1.84,1.52l3.73,0.37c1.24,0.13,2.49,0.25,3.74,0.28c2.8,0.76,1.15,0.94-1.68,0.87
					c-2.83-0.21-6.81-0.67-8.67-0.93c5.04,0.83,9.3,1.43,13.45,1.69c1.04,0.08,2.07,0.16,3.11,0.24c1.04,0.07,2.08,0.07,3.13,0.1
					c2.11,0.03,4.3,0.14,6.63,0.11c-2.75-0.42-1.17-0.85-2.51-1.47c1.56-0.33,3.42-0.51,5.32-0.53c1.9-0.06,3.84,0.04,5.46-0.24
					c0.87,0.42,0.54,1.01-2.04,1.24c2.12-0.13,4.23-0.46,6.35-0.7c-0.29,1.37,2.87,1.16-3.39,2.47l5.92-0.82
					c6.66-0.33-0.07,1.22-1.66,1.68l2.65-0.11c0.88-0.05,1.76-0.14,2.64-0.22l5.31-0.47c1.81-0.61,1.18-0.9,1.02-1.13
					c-0.16-0.25,0.12-0.51,3.65-1.33c1.24-0.05,2.53-0.13,3.84-0.25c1.31-0.14,2.63-0.36,3.99-0.58c1.36-0.23,2.74-0.48,4.14-0.75
					c1.39-0.28,2.78-0.66,4.19-1.02c1.41-0.37,2.83-0.74,4.25-1.12c1.41-0.41,2.8-0.88,4.21-1.32c1.41-0.44,2.81-0.88,4.19-1.32
					c1.37-0.49,2.73-0.97,4.08-1.44l-4.06,0.73c-1.35,0.22-2.73,0.38-4.08,0.56c1.65-0.44,2.74-0.89,3.46-1.38
					c0.71-0.51,1.05-1.01,1.24-1.5c0.37-0.99,0.11-1.94,0.79-2.86c5.86-1.97,13.17-5.86,18.18-7.77c-2.25,2.02-2.58,3.19-1.61,3.67
					c0.96,0.46,3.27,0.3,6.14-0.57c2.85-1.57,4.7-2.83,5.94-3.91c1.21-1.12,1.82-2.05,2.25-2.9c0.85-1.72,1.04-3.1,3.57-5.61
					c-2.03,6.35,8.11-4.25,8.48-1.95c6.5-5.15,12.37-11.09,17.88-17.42c1.34-1.62,2.67-3.24,4.02-4.87l1-1.23l0.95-1.27l1.91-2.54
					l1.93-2.54c0.64-0.85,1.23-1.74,1.86-2.6c1.23-1.75,2.51-3.47,3.72-5.25c-0.71-0.03-4.16,3.56-2.98,0.77
					c0.78-1.35,1.48-2.52,2.19-3.45c0.71-0.94,1.41-1.67,2.07-2.24c1.31-1.13,2.44-1.61,3.06-1.76c1.88-3.64,3.17-6.61,3.77-9.13
					c0.63-2.51,0.82-4.45,0.79-5.92c-1.18,3.32-1.92,3.32-2.77,2.21c0.81-1.83,1.53-2.99,2.17-3.84c0.61-0.86,1.16-1.4,1.66-1.95
					c0.98-1.1,1.83-2.25,2.28-6.16c3.24-0.93-2.25,8.26,0.29,8.54c3.25-6.5,3.84-11.17,4.41-16.47c0.96-0.32,0.68,0.86,0.45,1.69
					c-0.25,0.82-0.39,1.32,0.92-0.35c2.8-10.93,3.99-24.41,4.13-32.7c0.84-0.64,1.66-1.29,2.45-1.96c0.22-2.68,0.29-4.91,0.22-6.78
					c-0.07-1.87-0.42-3.39-0.83-4.63c1.01-2.84,1.46-0.58,1.58,2.23c0.3-3.59,0.14-7.61-0.39-11.2c-0.24-1.79-0.48-3.49-0.68-4.99
					c-0.26-1.49-0.49-2.78-0.59-3.79c1.36,0.58,0.47,4.02,1.5,5.18c0.08-1.13,0.02-2.28-0.12-3.46c-0.13-1.18-0.31-2.37-0.52-3.57
					c-0.21-1.2-0.45-2.39-0.72-3.57c-0.31-1.17-0.62-2.34-0.92-3.48c-0.62-2.28-1.05-4.46-1.4-6.44c-0.32-1.99-0.35-3.79,0.12-5.36
					c0.48,0.69,0.69,1.54,0.82,2.33c-0.25-1.64-0.52-3.25-0.83-4.83c-0.37-1.57-0.77-3.12-1.19-4.66c-0.43-1.53-0.8-3.06-1.32-4.56
					c-0.51-1.49-1.03-2.99-1.54-4.49c-2.07-6-4.74-11.91-7.53-18.47c-1.48-6.47-2.76-7.1-4.18-7.56c-1.47-0.45-3.18-0.74-5.96-6.39
					c1.27-0.68,1.36-1.97,0.77-3.61c-0.61-1.63-1.84-3.64-3.42-5.61c-1.6-1.97-3.39-3.98-4.93-5.8c-1.61-1.77-2.95-3.36-3.53-4.58
					l0.34,1.83c-1.39-0.92-2.57-2.16-3.77-3.43c-1.18-1.29-2.23-2.72-3.16-4.18c-0.91-1.48-1.8-2.9-2.53-4.25
					c-0.73-1.35-1.34-2.62-1.79-3.67c-1.53-1.79-3.43-3.65-5.4-5.64c-0.97-1-2.07-1.94-3.16-2.9c-1.1-0.96-2.22-1.91-3.35-2.84
					c-2.3-1.84-4.75-3.49-7.08-5.03c-2.4-1.46-4.77-2.69-6.94-3.66l2.14,0.25c-0.88-0.43-1.69-0.89-2.46-1.33
					c-0.79-0.42-1.53-0.85-2.23-1.28c-1.41-0.86-2.69-1.74-3.97-2.62c-1.29-0.86-2.63-1.66-4.07-2.46c-1.46-0.77-2.99-1.6-4.86-2.19
					c0.37-0.21,3.22,0.62,0.77-1.05c-7.92-4.78-16.48-8.52-25.29-11.39c-8.81-2.87-17.88-4.86-26.98-6.05
					c-9.11-1.16-18.23-1.52-27.22-1.23c-4.5,0.09-8.96,0.51-13.39,0.89c-2.2,0.28-4.41,0.55-6.6,0.82
					c-2.19,0.26-4.36,0.71-6.53,1.05c-8.29,1.48-16.72,3.54-25.01,6.5c-8.3,2.93-16.49,6.62-24.36,11.03
					c-7.87,4.4-15.46,9.47-22.5,15.25c-7.06,5.75-13.63,12.11-19.58,18.93c-11.92,13.64-21.42,29.1-27.96,45.1
					c-3.25,8-5.85,16.1-7.74,24.15c-0.23,1.01-0.46,2.01-0.7,3.01c-0.24,1-0.47,2-0.63,3c-0.36,2.01-0.72,4-1.08,5.98
					c-0.26,1.99-0.53,3.97-0.79,5.94l-0.2,1.47l-0.13,1.47c-0.08,0.98-0.17,1.95-0.25,2.93c0,0-0.04,0.46-0.1,1.26
					c-0.06,0.8-0.18,1.93-0.2,3.28c-0.07,2.7-0.3,6.25-0.19,9.67c0.03,1.71-0.01,3.38,0.08,4.9c0.09,1.49,0.16,2.84,0.23,3.94
					C100.47,261.52,100.52,262.53,100.46,261.42z"/>
				<path class="st0" d="M197.08,390.25c0.27,0.11,0.52,0.21,0.83,0.33C197.61,390.45,197.34,390.34,197.08,390.25z"/>
				<path class="st0" d="M339.18,372.25c-0.57,0.41-1.15,0.82-1.7,1.26C338.07,373.14,338.67,372.77,339.18,372.25z"/>
				<path class="st0" d="M392.74,263.56l0,2.55C392.83,265.01,392.82,264.21,392.74,263.56z"/>
				<path class="st0" d="M300.89,123.13c0.33,1.54-4.66,1.53-1.49,4.33c1.54,0.81,2.81,1.37,3.87,1.78
					c1.04,0.45,1.89,0.72,2.61,0.87c1.44,0.29,2.37,0.1,3.33-0.09c0.96-0.19,1.9-0.3,3.41,0.08c1.49,0.4,3.59,1.25,6.57,3.42
					c-0.9-0.91-1.8-1.84-2.73-2.74l-2.87-2.59c-0.38,1.15-1.83,1.3-3.8,0.88c-1-0.19-2.13-0.53-3.32-0.98
					c-1.2-0.45-2.43-1.06-3.73-1.62l-0.93-2.26c1.07-0.01,2.17,0.09,3.3,0.24C303.2,123.33,303.07,124.69,300.89,123.13z"/>
				<path class="st0" d="M305.54,124.75c-0.08-0.08-0.19-0.18-0.27-0.27c-0.06,0-0.12-0.03-0.19-0.04
					C305.24,124.54,305.37,124.62,305.54,124.75z"/>
			</g>
		</g>
	</g>
</g>
</svg>
