<?xml version="1.0" encoding="utf-8"?>
<!-- Generator: Adobe Illustrator 23.0.1, SVG Export Plug-In . SVG Version: 6.00 Build 0)  -->
<svg version="1.1" id="Layer_1" xmlns="http://www.w3.org/2000/svg" xmlns:xlink="http://www.w3.org/1999/xlink" x="0px" y="0px"
	 viewBox="0 0 500 500" style="enable-background:new 0 0 500 500;" xml:space="preserve">
<style type="text/css">
	.st0{fill:#CCCCCC;stroke:#CCCCCC;stroke-miterlimit:10;}
	.st1{fill:#202020;}
	.st2{fill:#FFFFFF;}
	.st3{fill:#E06970;}
</style>
<g>
	<path class="st2" d="M377.23,335.99H122.77c-46.56,0-84.3-37.74-84.3-84.3v-3.37c0-46.56,37.74-84.3,84.3-84.3h254.46
		c46.56,0,84.3,37.74,84.3,84.3v3.37C461.53,298.24,423.79,335.99,377.23,335.99z"/>
	<path class="st3" d="M250,335.99h127.23c46.56,0,84.3-37.74,84.3-84.3v-3.37c0-46.56-37.74-84.3-84.3-84.3H250
		C282.52,164.01,282.52,335.99,250,335.99z"/>
</g>
<circle class="st3" cx="160.16" cy="250" r="27.04"/>
<circle class="st2" cx="363.82" cy="250" r="27.04"/>
</svg>
