<svg width="501" height="501" viewBox="0 0 501 501" fill="none" xmlns="http://www.w3.org/2000/svg">
<g id="meditation">
<path id="sun-rays" d="M250 502C388.623 502 501 389.623 501 251C501 112.377 388.623 0 250 0C111.377 0 -1 112.377 -1 251C-1 389.623 111.377 502 250 502Z" fill="url(#paint0_linear_72_40)"/>
<path id="sun" d="M250 456C363.218 456 455 364.218 455 251C455 137.782 363.218 46 250 46C136.782 46 45 137.782 45 251C45 364.218 136.782 456 250 456Z" fill="url(#paint1_linear_72_40)"/>
<path id="terrain" d="M32 501L48.568 471.922L62.0753 467.989L86.718 455.291L97.8447 433.08L110.558 424.377L120.892 420.408L131.216 409.302L139.169 398.989C139.169 398.989 141.549 393.436 149.502 390.286C157.455 387.135 156.652 389.494 164.596 383.149C172.54 376.805 173.316 373.628 177.319 370.451C181.321 367.274 194.898 359.346 194.898 359.346L202.65 351.365L212.286 347.361H244.864L256.427 343.401L264.737 344.193C264.737 344.193 270.204 339.99 274.276 347.361C278.349 354.733 284.74 354.82 284.74 354.82H298.902C298.902 354.82 299.695 352.914 304.465 360.851L309.235 368.78C309.235 368.78 307.639 371.957 313.203 379.093C318.766 386.23 324.329 387.797 328.306 389.407C330.885 390.41 333.542 391.205 336.25 391.783C336.25 391.783 340.226 400.486 342.615 401.304C345.004 402.122 353.768 396.57 353.768 396.57L362.488 394.194L366.464 393.393C366.464 393.393 369.638 389.433 372.028 397.362L374.408 405.299C374.969 409.24 375.234 413.216 375.202 417.196C375.202 424.333 372.821 423.541 375.202 427.501C377.582 431.461 380.8 437.814 380.8 437.814L387.95 448.128L394.316 456.056L407.832 457.649L423.729 462.41C423.729 462.41 430.879 470.338 435.649 473.506C440.419 476.674 449.156 483.82 449.156 483.82L468 495.717V501H32Z" fill="#907373"/>
<path id="monk" d="M311.631 314.276C307.426 314.023 302.926 313.866 298.529 313.404C296.466 313.195 293.863 313.073 292.531 311.826C284.322 304.126 275.391 296.784 274.877 284.104C274.72 280.329 274.215 276.579 274.067 272.768C273.589 260.795 271.586 258.11 260.304 254.648C252.321 252.206 250.415 249.607 251.085 241.437C251.242 239.475 251.721 237.138 252.931 235.742C256.926 231.164 255.464 225.906 255.064 220.918C254.498 214.09 251.268 211.326 244.617 211.021C238.523 210.715 234.458 213.802 233.03 219.915C232.481 222.015 232.145 224.166 232.029 226.333C231.888 228.651 232.097 230.976 232.647 233.231C233.631 236.719 235.72 240.015 236.242 243.556C237.035 248.945 234.04 252.773 228.843 254.334C227.319 254.787 225.735 255.023 224.177 255.363C216.986 256.924 214.157 259.906 213.73 267.152C213.278 274.538 213.426 281.977 212.816 289.337C212.538 292.676 211.946 296.662 209.961 299.051C206.575 303.106 202.126 306.35 197.773 309.472C196.032 310.692 193.499 310.954 191.279 311.163C188.145 311.451 184.959 311.163 181.808 311.355C179.797 311.486 177.185 311.076 177.098 314.433C177.02 317.616 176.289 321.244 180.432 322.351C183.27 323.11 186.326 323.031 188.641 323.267C189.242 325.499 189.26 328.359 190.635 330.191C194.265 335.022 198.47 339.399 202.466 343.969C203.336 344.936 205.077 346.419 204.842 346.82C202.823 350.535 206.287 352.732 207.175 355.54C207.497 356.569 209.595 357.755 210.805 357.677C217.012 357.284 223.184 356.002 229.365 356.002C234.632 356.002 239.394 352.279 244.939 354.677C257.057 359.909 270.185 356.787 282.738 358.915C286.403 359.543 290.007 356.613 290.825 352.811C291.487 349.75 293.228 346.061 287.674 345.12C294.055 339.6 301.759 335.397 299.461 325.325C308.34 327.322 316.271 326.519 311.631 314.276ZM218.666 325.961L199.454 317.346C209.378 312.306 222.584 310.858 223.419 295.284C226.414 304.675 225.796 308.504 218.666 325.961ZM266.363 327.383C261.767 314.302 257.771 301.013 264.343 287.27C266.842 293.705 264.979 302.365 271.569 307.492C277.349 312 283.608 315.898 289.154 319.7L266.363 327.383Z" fill="#907373"/>
</g>
<defs>
<linearGradient id="paint0_linear_72_40" x1="250" y1="0" x2="250" y2="502" gradientUnits="userSpaceOnUse">
<stop stop-color="#F1EDCD"/>
<stop offset="1" stop-color="#EE8288" stop-opacity="0"/>
</linearGradient>
<linearGradient id="paint1_linear_72_40" x1="250" y1="46" x2="250" y2="456" gradientUnits="userSpaceOnUse">
<stop stop-color="#EE8288"/>
<stop offset="1" stop-color="#EE8288" stop-opacity="0"/>
</linearGradient>
</defs>
</svg>
