<svg width="136" height="148" viewBox="0 0 136 148" fill="none" xmlns="http://www.w3.org/2000/svg">
<path id="monk" d="M134.631 103.276C130.426 103.023 125.926 102.866 121.529 102.404C119.466 102.195 116.863 102.073 115.531 100.826C107.322 93.126 98.3906 85.7836 97.877 73.1045C97.7203 69.3287 97.2153 65.579 97.0673 61.7683C96.5885 49.7954 94.5863 47.1096 83.3041 43.6477C75.3213 41.2061 73.4148 38.6074 74.0851 30.4366C74.2418 28.4746 74.7206 26.1376 75.9307 24.7424C79.9265 20.1643 78.464 14.906 78.0635 9.91804C77.4977 3.09014 74.268 0.325835 67.617 0.020629C61.5233 -0.284577 57.4579 2.80237 56.0302 8.91521C55.4809 11.0152 55.1455 13.1655 55.0291 15.3333C54.8882 17.6505 55.0965 19.9758 55.6472 22.2309C56.6309 25.719 58.7202 29.0152 59.2425 32.5556C60.0347 37.9447 57.04 41.7729 51.8429 43.3338C50.3195 43.7872 48.7351 44.0227 47.1768 44.3628C39.9862 45.9237 37.1569 48.906 36.7304 56.1525C36.2777 63.5384 36.4257 70.9768 35.8163 78.3366C35.5377 81.6764 34.9458 85.6616 32.9609 88.0509C29.5745 92.1058 25.1261 95.3497 20.7734 98.4715C19.0323 99.6923 16.4991 99.9539 14.2792 100.163C11.1452 100.451 7.95907 100.163 4.80772 100.355C2.79678 100.486 0.185173 100.076 0.0981193 103.433C0.0197709 106.616 -0.71148 110.244 3.43228 111.351C6.27024 112.11 9.32582 112.031 11.6414 112.267C12.2421 114.499 12.2595 117.359 13.635 119.191C17.2651 124.022 21.4698 128.399 25.4656 132.969C26.3361 133.936 28.0772 135.419 27.8422 135.82C25.8225 139.535 29.2873 141.732 30.1752 144.54C30.4973 145.569 32.5953 146.755 33.8054 146.677C40.0123 146.284 46.1844 145.002 52.3652 145.002C57.632 145.002 62.3938 141.279 67.9391 143.677C80.057 148.909 93.1848 145.787 105.738 147.915C109.403 148.543 113.007 145.613 113.825 141.811C114.487 138.75 116.228 135.061 110.674 134.12C117.055 128.6 124.759 124.397 122.461 114.325C131.34 116.322 139.271 115.519 134.631 103.276ZM41.6663 114.961L22.4535 106.346C32.3777 101.306 45.5837 99.858 46.4194 84.2838C49.4141 93.6754 48.796 97.5036 41.6663 114.961ZM89.3631 116.383C84.7667 103.302 80.7709 90.0129 87.3434 76.2699C89.8419 82.7054 87.9789 91.3646 94.5689 96.492C100.349 101 106.608 104.898 112.154 108.7L89.3631 116.383Z" fill="#907373"/>
</svg>
