<?xml version="1.0" encoding="utf-8"?>
<!-- Generator: Adobe Illustrator 23.0.1, SVG Export Plug-In . SVG Version: 6.00 Build 0)  -->
<svg version="1.1" id="Layer_1" xmlns="http://www.w3.org/2000/svg" xmlns:xlink="http://www.w3.org/1999/xlink" x="0px" y="0px"
	 viewBox="0 0 288 307.94" style="enable-background:new 0 0 288 307.94;" xml:space="preserve">
<g>
	<path d="M112.79,190.3c-2.1,0.88-4.04,1.66-5.94,2.51c-17.87,7.95-36.61,10.84-56.03,9.48c-7.75-0.54-8.37-1.66-5.89-8.88
		c8.87-25.83,22.38-48.68,43.71-66.21c37.91-31.17,87.2-29.32,123.01,4.33c19.03,17.89,31.46,39.81,39.52,64.41
		c1.47,4.48,0.4,5.86-5.26,6.32c-21.02,1.73-41.12-1.74-60.14-11c-1.03-0.5-2.03-1.06-3.83-2.01c0.24,2.06,0.28,3.43,0.58,4.75
		c2.42,10.55,7.32,19.9,13.67,28.62c1.84,2.53,3.55,3.17,6.63,2.67c14.44-2.34,28.2-0.66,40.54,7.96
		c19.97,13.95,19.41,36.35-1.31,49.25c-13.38,8.33-27.8,8.1-42.46,4.57c-18.27-4.4-34.95-12.74-51.5-21.31
		c-3.05-1.58-5.28-1.43-8.25,0.09c-17.93,9.17-35.9,18.33-55.92,22.18c-14.96,2.88-29.2,1.54-41.7-8.24
		c-15.81-12.37-16.25-31.02-0.91-43.91c14.35-12.06,31.06-13.61,48.53-9.72c4.74,1.05,7.08-0.03,9.69-3.78
		c5.76-8.28,10.54-16.93,12.99-26.77c0.28-1.13,0.51-2.27,0.66-3.42C113.2,191.75,112.98,191.27,112.79,190.3z M157.11,127.08
		c0.33,3.74,0.62,7.37,0.97,11c1.07,10.97,1.53,22.36,10.47,30.38c18.25,16.39,40.39,21.21,65.17,21.09
		c-9-22.06-21.39-40.37-40.66-54.94c-2.83,6.51-5.71,12.14-7.73,18.06c-2.02,5.91-3.18,12.11-4.72,18.19
		c-10.63-4.23-11.57-5.96-8.86-16.56c0.62-2.42,1.23-4.86,2.14-7.17c2.53-6.43,5.21-12.81,7.83-19.19
		c-20.98-12.55-51.74-11.03-67.33-0.14c3.52,10.7,7.09,21.03,10.21,31.51c0.59,1.99,0.12,5.24-1.21,6.64
		c-2.3,2.42-5.64,3.85-8.97,5.96c-1.76-13.53-5.56-25.57-12.75-36.98c-18.65,14.28-31.05,32.45-39.89,53.9
		c1.63,0.31,2.58,0.66,3.53,0.65c20.75-0.15,40.3-4.46,57.45-16.87c7.49-5.42,12.24-12.65,13.46-21.91
		c0.89-6.76,1.55-13.55,2.19-20.34c0.32-3.42,1.79-4.75,5.36-3.47c0,4.65,0.02,9.29,0,13.93c-0.09,15.19-3.2,29.13-15.89,39.26
		c-0.99,0.79-1.65,2.49-1.77,3.82c-1.46,16.4-7.57,30.9-17.59,43.86c-0.66,0.85-1.1,1.85-1.65,2.78c10.27,4.66,20.18,9.16,31,14.07
		c-4.49,2.39-7.96,3.98-11.15,6.01c-3,1.91-5.46,1.54-8.72,0.25c-9.87-3.93-19.8-7.89-30.03-10.65c-13.18-3.56-26.16-2.9-37.36,6.35
		c-8.6,7.1-8.47,15.1,0.23,22.04c9.29,7.42,19.92,7.67,30.87,5.51c17-3.35,32.37-10.98,47.85-18.38
		c18.74-8.95,37.61-17.61,56.42-26.43c0.37-0.17,0.57-0.72,0.93-1.2c-9.69-12.58-15.91-26.61-17.46-42.41
		c-0.37-3.81-1.71-6.39-4.4-8.89c-6.43-5.98-10.56-13.44-11.49-22.16c-0.98-9.22-1.13-18.53-1.66-27.94
		c1.31-0.11,1.95-0.25,2.57-0.18C155.25,126.6,156.03,126.84,157.11,127.08z M159.69,255.85c15.94,7.92,31.02,15.28,47.66,18.44
		c11.54,2.19,22.63,1.35,31.7-7.36c6.3-6.05,6.41-12.51,0.25-18.69c-5.73-5.75-12.84-9.03-20.87-9.59
		C197.05,237.18,178.95,246.93,159.69,255.85z"/>
	<path d="M147.64,18.55c18.87,0.02,30.53,10.54,32.06,29.62c1.11,13.82-2.16,26.85-9.86,38.43c-10.57,15.9-33.74,16.31-44.4,0.48
		c-9.19-13.65-12.36-29.05-8.77-45.26C120.07,26.43,131.02,18.53,147.64,18.55z M147.8,31.55c-11.52-0.05-17.7,5.3-19.01,16.63
		c-1.16,10.04,1.09,19.47,5.47,28.44c2.68,5.49,7.08,9.01,13.28,8.97c5.99-0.04,10.85-3.32,12.79-8.81
		c2.78-7.89,5.64-16.08,6.32-24.33C167.77,38.99,160.35,31.6,147.8,31.55z"/>
</g>
</svg>
